<svg xmlns="http://www.w3.org/2000/svg" viewBox="0 0 100 100">
  <defs>
    <linearGradient id="brainGrad" x1="0%" y1="0%" x2="100%" y2="100%">
      <stop offset="0%" style="stop-color:#667eea;stop-opacity:1" />
      <stop offset="100%" style="stop-color:#764ba2;stop-opacity:1" />
    </linearGradient>
  </defs>
  <path d="M50 10c-8 0-15 4-19 10-2-1-4-1-6 0-4 2-6 6-6 10 0 3 1 6 3 8-1 2-1 4 0 6 2 4 6 6 10 6h4v20c0 8 6 14 14 14h12c8 0 14-6 14-14V50h4c4 0 8-2 10-6 1-2 1-4 0-6 2-2 3-5 3-8 0-4-2-8-6-10-2-1-4-1-6 0-4-6-11-10-19-10z" fill="url(#brainGrad)"/>
</svg>